Coordinates
version=1
nRows=12
nColumns=24
inDegrees=yes

Units are S.I. units (second, meters, Newtons, ...)
Angles are in degrees.

endheader
time	pelvis_tilt	pelvis_list	pelvis_rotation	pelvis_tx	pelvis_ty	pelvis_tz	hip_flexion_r	hip_adduction_r	hip_rotation_r	knee_angle_r	ankle_angle_r	subtalar_angle_r	mtp_angle_r	hip_flexion_l	hip_adduction_l	hip_rotation_l	knee_angle_l	ankle_angle_l	subtalar_angle_l	mtp_angle_l	lumbar_extension	lumbar_bending	lumbar_rotation
      4.79000000	      0.08953582	      2.92798019	      0.22141099	      1.16028305	      0.95376791	     -0.17541615	     26.48401254	     -4.29641787	     -4.32778702	    -43.03629602	      7.99642154	     -5.09569200	      0.00000000	     -0.64886518	      9.06787014	      2.99947202	    -11.22819073	     13.55830307	    -18.74366373	      0.00000000	    -24.09462506	     -8.31689169	     -5.32041465
      4.80000000	      0.02879444	      3.10230896	      0.76717553	      1.17283149	      0.95295956	     -0.17626312	     26.64178889	     -4.54525863	     -4.96543976	    -39.12635633	      8.15386086	     -3.84635741	      0.00000000	     -1.93409299	      9.21614911	      3.59673636	    -10.31740009	     13.78330898	    -18.60604897	      0.00000000	    -24.23303720	     -8.27828777	     -5.78862618
      4.81000000	      0.01223566	      3.34558909	      1.30828762	      1.18556667	      0.95189147	     -0.17704406	     26.61955524	     -4.83535323	     -5.56017535	    -35.05726374	      8.12029878	     -2.48772883	      0.00000000	     -3.28358712	      9.40451647	      4.12121807	     -9.40736757	     14.03842383	    -18.40186966	      0.00000000	    -24.40342139	     -8.32353626	     -6.26645531
      4.82000000	      0.13618099	      3.61735887	      1.81961921	      1.19846474	      0.95076184	     -0.17769380	     26.30936387	     -5.08939799	     -6.01712114	    -30.83582576	      7.85083385	     -1.15061695	      0.00000000	     -4.79665952	      9.58426319	      4.59259935	     -8.50661098	     14.26767436	    -18.16842915	      0.00000000	    -24.74414462	     -8.39821814	     -6.77560867
      4.83000000	      0.15039251	      4.01140908	      2.35755526	      1.21146608	      0.94915746	     -0.17835840	     26.05965230	     -5.47408061	     -6.51413993	    -26.63754065	      7.52179420	      0.21532937	      0.00000000	     -6.17818086	      9.86535630	      5.00828780	     -7.67675601	     14.57181736	    -17.75681741	      0.00000000	    -24.95240198	     -8.61476565	     -7.36392037
      4.84000000	      0.31407203	      4.39682510	      2.85723642	      1.22466057	      0.94754890	     -0.17890545	     25.54894656	     -5.79011244	     -6.92368620	    -22.41061822	      7.08714594	      1.44245683	      0.00000000	     -7.71814206	     10.10133718	      5.38885859	     -6.89300624	     14.84760085	    -17.34226315	      0.00000000	    -25.32551991	     -8.82333405	     -7.84560408
      4.85000000	      0.29875394	      4.84827262	      3.43332296	      1.23792280	      0.94548982	     -0.17951553	     25.21651540	     -6.20144733	     -7.49726305	    -18.35831647	      6.63823717	      2.59826793	      0.00000000	     -9.02148649	     10.38124327	      5.78228371	     -6.24366581	     15.18328506	    -16.79384279	      0.00000000	    -25.49507977	     -9.09429403	     -8.45546094
      4.86000000	      0.54453762	      5.24161226	      3.89127403	      1.25140170	      0.94363051	     -0.17996388	     24.57356664	     -6.47270870	     -8.02445228	    -14.46890734	      6.20692382	      3.70871276	      0.00000000	    -10.60284618	     10.57201264	      6.06319414	     -5.61496576	     15.47964977	    -16.27968938	      0.00000000	    -25.94677656	     -9.29278027	     -8.96804852
      4.87000000	      0.70804278	      5.66977413	      4.38504333	      1.26494362	      0.94153353	     -0.18036308	     24.02882342	     -6.76362512	     -8.58719670	    -10.89493666	      5.87610482	      4.70789270	      0.00000000	    -12.02750252	     10.77237106	      6.37112150	     -5.15566161	     15.80008504	    -15.70716714	      0.00000000	    -26.30666046	     -9.53397684	     -9.50373015
      4.88000000	      0.90453772	      6.07478597	      4.85719089	      1.27860986	      0.93940761	     -0.18068777	     23.47023537	     -6.99611638	     -9.13634385	     -7.70916711	      5.67018387	      5.64864448	      0.00000000	    -13.42115107	     10.92695654	      6.63193893	     -4.84247975	     16.12638173	    -15.11178541	      0.00000000	    -26.68915911	     -9.74361238	    -10.01082981
      4.89000000	      1.11579502	      6.43513382	      5.29116559	      1.29241411	      0.93727410	     -0.18092668	     22.94543130	     -7.15044564	     -9.61028084	     -5.00853336	      5.58792822	      6.49677088	      0.00000000	    -14.75261997	     11.02173559	      6.83822415	     -4.68553463	     16.45566135	    -14.50227699	      0.00000000	    -27.05954246	     -9.90995098	    -10.46662794
      4.90000000	      1.31737544	      6.74708720	      5.71199922	      1.30634771	      0.93516758	     -0.18108995	     22.50076504	     -7.24225161	    -10.01620297	     -2.88091350	      5.63233715	      7.19311973	      0.00000000	    -15.97849226	     11.05139254	      6.99297132	     -4.71091158	     16.76600430	    -13.87467569	      0.00000000	    -27.39194878	    -10.03131337	    -10.90626609
